<svg id="Capa_1" data-name="Capa 1" xmlns="http://www.w3.org/2000/svg" viewBox="0 0 127.42 36.32"><defs><style>.cls-1{fill:#999;}.cls-2{fill:#a6ce39;}.cls-3{fill:#fff;}</style></defs><title>logo-orcid</title><path class="cls-1" d="M56.37,9.63a9.53,9.53,0,0,1,3.53,3.54,9.72,9.72,0,0,1,1.3,4.95,9.87,9.87,0,0,1-1.3,5A9.71,9.71,0,0,1,43,23.1a9.86,9.86,0,0,1-1.3-5A9.72,9.72,0,0,1,43,13.17,9.84,9.84,0,0,1,56.37,9.63ZM47.9,11.7a7.54,7.54,0,0,0,0,12.88,6.77,6.77,0,0,0,3.59,1,6.64,6.64,0,0,0,3.56-1,7.55,7.55,0,0,0,3.56-6.46A7.46,7.46,0,0,0,55,11.7a6.71,6.71,0,0,0-3.56-1A6.85,6.85,0,0,0,47.9,11.7Z"/><path class="cls-1" d="M94.94,11.33a6.9,6.9,0,0,0-6.48.34,7.21,7.21,0,0,0-2.59,2.69,7.77,7.77,0,0,0,0,7.46,7.18,7.18,0,0,0,2.59,2.7,6.83,6.83,0,0,0,3.6,1,7,7,0,0,0,2.86-.62,8.25,8.25,0,0,0,2.49-1.69l1.54,1.74a10.31,10.31,0,0,1-3.26,2.25,9.38,9.38,0,0,1-8.6-.5,9.49,9.49,0,0,1-3.47-3.57,10,10,0,0,1-1.27-5,9.79,9.79,0,0,1,1.28-4.95A9.56,9.56,0,0,1,92,8.34a9.62,9.62,0,0,1,3.75.76,9.24,9.24,0,0,1,3.14,2.14l-1.51,1.9A7.66,7.66,0,0,0,94.94,11.33Z"/><path class="cls-2" d="M102.49,8.52H105V27.81h-2.54Z"/><path class="cls-2" d="M122.75,9.77a9,9,0,0,1,3.43,3.46,9.87,9.87,0,0,1,1.24,4.93,9.78,9.78,0,0,1-1.26,4.93,9.1,9.1,0,0,1-3.45,3.46,9.75,9.75,0,0,1-4.92,1.25h-7.46V8.52h7.54A9.63,9.63,0,0,1,122.75,9.77Zm-1.32,14.7a6.75,6.75,0,0,0,2.49-2.59,7.51,7.51,0,0,0,.91-3.69,7.48,7.48,0,0,0-.93-3.72,6.86,6.86,0,0,0-6.09-3.56h-4.95v14.5h5.06A6.73,6.73,0,0,0,121.43,24.47Z"/><path class="cls-1" d="M81.6,28.18H78.28l-6.44-8H68.24v8H65.68v-20h5.39A15,15,0,0,1,74,8.38a6,6,0,0,1,2.09.84,5,5,0,0,1,1.63,1.73,5.34,5.34,0,0,1,.59,2.64,6.06,6.06,0,0,1-1,3.63,6.38,6.38,0,0,1-2.88,2.2Zm-6-14.4a3.79,3.79,0,0,0-.29-1.53,2.63,2.63,0,0,0-1-1.12A3.47,3.47,0,0,0,73,10.59a9.15,9.15,0,0,0-1.8-.15h-3V18h2.58a9,9,0,0,0,2.12-.22,3.33,3.33,0,0,0,1.54-.83,3.55,3.55,0,0,0,.86-1.3A5.32,5.32,0,0,0,75.62,13.78Z"/><circle class="cls-2" cx="103.72" cy="3.69" r="1.84"/><path class="cls-2" d="M36.32,18.16A18.16,18.16,0,1,1,18.16,0,18.16,18.16,0,0,1,36.32,18.16Z"/><path class="cls-3" d="M12.25,26.42H10.06V11.22h2.19v15.2Z"/><path class="cls-3" d="M15.45,11.22h5.9c5.62,0,8.09,4,8.09,7.61a7.68,7.68,0,0,1-8.06,7.61H15.45Zm2.19,13.24h3.48c5,0,6.09-3.76,6.09-5.63,0-3.05-1.94-5.63-6.2-5.63H17.64V24.46Z"/><path class="cls-3" d="M12.59,8.06a1.43,1.43,0,1,1-1.43-1.43A1.44,1.44,0,0,1,12.59,8.06Z"/></svg>